<svg width="43" height="43" viewBox="0 0 43 43" fill="none" xmlns="http://www.w3.org/2000/svg">
<path d="M21.28 29.2605C22.3322 29.2605 23.3608 28.9485 24.2356 28.3639C25.1105 27.7793 25.7924 26.9484 26.195 25.9763C26.5977 25.0042 26.7031 23.9346 26.4978 22.9026C26.2925 21.8706 25.7858 20.9227 25.0418 20.1787C24.2978 19.4346 23.3499 18.928 22.3179 18.7227C21.2859 18.5174 20.2162 18.6228 19.2441 19.0254C18.272 19.4281 17.4412 20.11 16.8566 20.9848C16.272 21.8597 15.96 22.8883 15.96 23.9405C15.96 25.3514 16.5205 26.7046 17.5182 27.7023C18.5159 28.7 19.869 29.2605 21.28 29.2605ZM21.28 21.2805C21.8061 21.2805 22.3204 21.4365 22.7578 21.7288C23.1953 22.021 23.5362 22.4365 23.7375 22.9225C23.9388 23.4086 23.9915 23.9434 23.8889 24.4594C23.7863 24.9754 23.5329 25.4494 23.1609 25.8214C22.7889 26.1934 22.3149 26.4467 21.7989 26.5494C21.2829 26.652 20.7481 26.5993 20.2621 26.398C19.776 26.1967 19.3606 25.8557 19.0683 25.4183C18.776 24.9809 18.62 24.4666 18.62 23.9405C18.62 23.235 18.9002 22.5584 19.3991 22.0596C19.8979 21.5607 20.5745 21.2805 21.28 21.2805ZM18.62 7.98047H23.94V10.6405H18.62V7.98047Z" fill="white"/>
<path d="M31.92 2.66016H10.64C9.93452 2.66016 9.25794 2.94041 8.7591 3.43925C8.26025 3.9381 7.98 4.61468 7.98 5.32016V37.2402C7.98 37.9456 8.26025 38.6222 8.7591 39.1211C9.25794 39.6199 9.93452 39.9002 10.64 39.9002H31.92C32.6252 39.8991 33.3011 39.6185 33.7997 39.1199C34.2984 38.6213 34.5789 37.9453 34.58 37.2402V5.32016C34.58 4.61468 34.2998 3.9381 33.8009 3.43925C33.3021 2.94041 32.6255 2.66016 31.92 2.66016ZM26.6 37.2402H15.96V34.5802C15.96 34.2274 16.1001 33.8891 16.3495 33.6397C16.599 33.3903 16.9373 33.2502 17.29 33.2502H25.27C25.6227 33.2502 25.961 33.3903 26.2105 33.6397C26.4599 33.8891 26.6 34.2274 26.6 34.5802V37.2402ZM29.26 37.2402V34.5802C29.26 33.5219 28.8396 32.5071 28.0914 31.7588C27.3431 31.0105 26.3282 30.5902 25.27 30.5902H17.29C16.2318 30.5902 15.2169 31.0105 14.4686 31.7588C13.7204 32.5071 13.3 33.5219 13.3 34.5802V37.2402H10.64V5.32016H31.92V37.2402H29.26Z" fill="white"/>
</svg>
